<svg width="22" height="16" viewBox="0 0 22 16" fill="none" xmlns="http://www.w3.org/2000/svg">
<path d="M6.57346 4.18077C6.12101 3.86405 5.49748 3.97409 5.18077 4.42654C4.86405 4.87899 4.97409 5.50252 5.42654 5.81923L6.57346 4.18077ZM11 8.5L10.4265 9.31923C10.7709 9.56026 11.2291 9.56026 11.5735 9.31923L11 8.5ZM16.5735 5.81923C17.0259 5.50252 17.1359 4.87899 16.8192 4.42654C16.5025 3.97409 15.879 3.86405 15.4265 4.18077L16.5735 5.81923ZM1 13H0H1ZM3 1V0V1ZM19 1V0V1ZM5.42654 5.81923L10.4265 9.31923L11.5735 7.68077L6.57346 4.18077L5.42654 5.81923ZM11.5735 9.31923L16.5735 5.81923L15.4265 4.18077L10.4265 7.68077L11.5735 9.31923ZM2 13V3H0V13H2ZM2 3C2 2.73478 2.10536 2.48043 2.29289 2.29289L0.87868 0.87868C0.31607 1.44129 0 2.20435 0 3H2ZM2.29289 2.29289C2.48043 2.10536 2.73478 2 3 2V0C2.20435 0 1.44129 0.31607 0.87868 0.87868L2.29289 2.29289ZM3 2H19V0H3V2ZM19 2C19.2652 2 19.5196 2.10536 19.7071 2.29289L21.1213 0.87868C20.5587 0.31607 19.7957 0 19 0V2ZM19.7071 2.29289C19.8946 2.48043 20 2.73478 20 3H22C22 2.20435 21.6839 1.44129 21.1213 0.87868L19.7071 2.29289ZM20 3V13H22V3H20ZM20 13C20 13.2652 19.8946 13.5196 19.7071 13.7071L21.1213 15.1213C21.6839 14.5587 22 13.7957 22 13H20ZM19.7071 13.7071C19.5196 13.8946 19.2652 14 19 14V16C19.7957 16 20.5587 15.6839 21.1213 15.1213L19.7071 13.7071ZM19 14H3V16H19V14ZM3 14C2.73478 14 2.48043 13.8946 2.29289 13.7071L0.87868 15.1213C1.44129 15.6839 2.20435 16 3 16V14ZM2.29289 13.7071C2.10536 13.5196 2 13.2652 2 13H0C0 13.7956 0.31607 14.5587 0.87868 15.1213L2.29289 13.7071Z" fill="#483E89"/>
</svg>
